# xmcd
#
# Track frame offsets:
#	150
#	27586
#	42883
#	72234
#	93365
#	118844
#	141157
#	159336
#	191622
#	219431
#
# Disc length: 3238 seconds
#
# Revision: 0
# Processed by: cddbd v1.5.2PL0 Copyright (c) Steve Scherf et al.
# Submitted via: EZCDAudioConverter 8.0.2.1
#
DISCID=8c0ca40a
DTITLE=Various Artist - st.  Phú Quang. Vol 03. Trong Ánh Chớp Số Phận
DYEAR=1997
DGENRE=
TTITLE0=Ngọc Anh - Mơ về nơi xa lắm
TTITLE1=Trần Thu Hà - Khúc mưa
TTITLE2=Lê Dung - Khúc mùa thu
TTITLE3=Ngọc Anh - Nói với anh
TTITLE4=Thanh Lam - Im lặng đêm Hà Nội
TTITLE5=Ngọc Anh - Tình khúc mong manh
TTITLE6=Thanh Long Bass - Mùa hạ còn đâu
TTITLE7=Ngọc Anh - Romance 1
TTITLE8=Ngọc Anh - Trong Ánh Chớp Số Phận
TTITLE9=Mỹ Linh - Quán thời gian
EXTD=
EXTT0=
EXTT1=
EXTT2=
EXTT3=
EXTT4=
EXTT5=
EXTT6=
EXTT7=
EXTT8=
EXTT9=
PLAYORDER=
